#!OML:ASF X:\für Bonn\!DataBase\2005_08_10_Bjorn_Final\c3d\bjorn.ASF
:FULLY-SPECIFIED
:DEGREES
321
root -1.3011 17.8361 3.00373 -543.809 32.199 -540.072
lowerback -0.628415 5.36993 2.19695
upperback 7.18739 7.82575 -2.91785
thorax 8.63951 4.32971 -3.59708
lowerneck -0.274962 1.89442 12.2695
upperneck 11.8922 3.16134 -5.44869
head 3.87145 2.04755 -3.55323
rclavicle -3.67752e-014 3.33958e-014
rhumerus 82.7838 15.8984 -70.5837
rradius 40.064
rwrist 30.4668
rhand -26.7453 9.41726
rfingers 7.12502
rthumb -0.174121 -20.5624
lclavicle -3.67752e-014 3.33958e-014
lhumerus 50.5876 -16.5286 84.0433
lradius 74.8064
lwrist 52.1136
lhand -48.3229 -2.95609
lfingers 7.12502
lthumb -20.9786 25.9293
rfemur 367.143 13.0546 -355.082
rtibia 43.8046
rfoot -13.2131 6.39439
rtoes -41.5978
lfemur -23.2465 -0.500795 -19.0607
ltibia 57.6113
lfoot -22.1355 6.14435
ltoes -24.0391
322
root -1.29168 17.9364 2.99249 -543.436 32.2967 -539.961
lowerback -0.874403 5.41091 2.17923
upperback 7.00657 7.85811 -2.989
thorax 8.59642 4.33372 -3.64413
lowerneck -0.233279 1.86538 12.3848
upperneck 12.1159 3.14811 -5.43902
head 3.933 2.06077 -3.57008
rclavicle 9.78021e-014 -2.54444e-014
rhumerus 82.8625 15.8682 -70.6557
rradius 39.7245
rwrist 30.5979
rhand -26.8642 9.30099
rfingers 7.12502
rthumb -0.288928 -20.6786
lclavicle 9.78021e-014 -2.54444e-014
lhumerus 50.7672 -16.5126 83.962
lradius 74.4532
lwrist 52.1936
lhand -48.1784 -2.97263
lfingers 7.12502
lthumb -20.8398 25.9281
rfemur 366.885 12.6462 -355.065
rtibia 43.2217
rfoot -12.2033 6.05123
rtoes -41.1527
lfemur -22.8906 -0.610172 -18.9456
ltibia 56.4057
lfoot -21.537 6.14007
ltoes -23.6164
323
root -1.28259 18.0329 2.98361 -543.088 32.383 -539.849
lowerback -1.10529 5.43665 2.13542
upperback 6.84554 7.86865 -3.01111
thorax 8.5525 4.32353 -3.6281
lowerneck -0.155682 1.84519 12.3941
upperneck 12.325 3.15687 -5.44438
head 3.98414 2.07969 -3.57397
rclavicle -4.57205e-015 -7.95139e-016
rhumerus 82.9378 15.9146 -70.6411
rradius 39.4229
rwrist 30.7278
rhand -27.0652 9.10215
rfingers 7.12502
rthumb -0.483057 -20.877
lclavicle -4.57205e-015 -7.95139e-016
lhumerus 50.9415 -16.434 83.9619
lradius 74.0662
lwrist 52.1912
lhand -47.8766 -3.14745
lfingers 7.12502
lthumb -20.5498 25.7849
rfemur 366.642 12.1781 -355.039
rtibia 42.6725
rfoot -11.2001 5.6577
rtoes -40.8486
lfemur -22.5391 -0.66493 -18.8147
ltibia 55.2262
lfoot -20.9581 6.03938
ltoes -23.0504
324
root -1.27329 18.1257 2.97586 -542.759 32.4807 -539.759
lowerback -1.32448 5.47022 2.08449
upperback 6.67449 7.8929 -3.05563
thorax 8.49483 4.32105 -3.63197
lowerneck -0.050691 1.80812 12.4892
upperneck 12.5534 3.15113 -5.48175
head 4.03719 2.09636 -3.60278
rclavicle -2.18663e-015 1.74931e-014
rhumerus 82.9658 15.9472 -70.7328
rradius 39.1329
rwrist 30.872
rhand -27.2462 9.06605
rfingers 7.12502
rthumb -0.657855 -20.9127
lclavicle -2.18663e-015 1.74931e-014
lhumerus 51.0199 -16.3993 83.9283
lradius 73.7897
lwrist 52.1801
lhand -47.4995 -3.54002
lfingers 7.12502
lthumb -20.1874 25.431
rfemur 366.392 11.7147 -355.032
rtibia 42.1625
rfoot -10.2455 5.25298
rtoes -40.5045
lfemur -22.195 -0.691943 -18.7045
ltibia 54.0825
lfoot -20.3778 5.972
ltoes -22.5524
325
root -1.26482 18.2146 2.96951 -542.467 32.5552 -539.688
lowerback -1.51345 5.49444 2.02439
upperback 6.50796 7.90575 -3.09022
thorax 8.42055 4.31265 -3.62444
lowerneck 0.117958 1.76528 12.5029
upperneck 12.7425 3.14493 -5.48298
head 4.06575 2.111 -3.60765
rclavicle -1.47101e-014 -1.98785e-014
rhumerus 82.9509 16.0184 -70.8407
rradius 38.896
rwrist 30.9922
rhand -27.3732 9.06665
rfingers 7.12502
rthumb -0.780495 -20.9117
lclavicle -1.47101e-014 -1.98785e-014
lhumerus 51.0112 -16.3459 83.9105
lradius 73.6497
lwrist 52.1709
lhand -47.166 -3.90702
lfingers 7.12502
lthumb -19.8668 25.0976
rfemur 366.187 11.2497 -355.028
rtibia 41.6747
rfoot -9.33791 4.8533
rtoes -40.0218
lfemur -21.85 -0.769203 -18.6172
ltibia 52.9823
lfoot -19.8266 5.91395
ltoes -21.9661
326
root -1.25635 18.3002 2.9643 -542.164 32.6378 -539.598
lowerback -1.71713 5.51213 1.96818
upperback 6.35561 7.90867 -3.10045
thorax 8.36626 4.299 -3.59214
lowerneck 0.298769 1.73833 12.4364
upperneck 12.8854 3.15534 -5.43669
head 4.078 2.13008 -3.58392
rclavicle -3.61788e-014 1.66979e-014
rhumerus 82.8999 16.1566 -70.9733
rradius 38.7341
rwrist 31.0432
rhand -27.4167 9.11287
rfingers 7.12502
rthumb -0.822585 -20.8653
lclavicle -3.61788e-014 1.66979e-014
lhumerus 50.9966 -16.258 83.9271
lradius 73.5221
lwrist 52.1694
lhand -46.9547 -4.17314
lfingers 7.12502
lthumb -19.6638 24.8523
rfemur 365.979 10.7704 -355.008
rtibia 41.2135
rfoot -8.45014 4.45479
rtoes -39.5023
lfemur -21.5328 -0.78793 -18.5039
ltibia 51.925
lfoot -19.2793 5.85114
ltoes -21.4026
327
root -1.24915 18.3822 2.96034 -541.829 32.7193 -539.411
lowerback -1.90406 5.53379 2.00993
upperback 6.20985 7.90957 -3.08484
thorax 8.31955 4.28975 -3.58766
lowerneck 0.503507 1.69865 12.4023
upperneck 12.9904 3.15584 -5.46685
head 4.07499 2.14085 -3.59015
rclavicle -4.77083e-014 -3.97569e-015
rhumerus 82.7999 16.3132 -71.1627
rradius 38.6055
rwrist 31.0683
rhand -27.4186 9.24361
rfingers 7.12502
rthumb -0.824393 -20.7345
lclavicle -4.77083e-014 -3.97569e-015
lhumerus 50.9835 -16.1834 83.9363
lradius 73.4394
lwrist 52.2141
lhand -46.9311 -4.22066
lfingers 7.12502
lthumb -19.6411 24.8071
rfemur 365.788 10.3 -354.876
rtibia 40.773
rfoot -7.61232 3.98324
rtoes -39.1539
lfemur -21.2341 -0.749891 -18.2991
ltibia 50.9231
lfoot -18.7267 5.7684
ltoes -21.1553
328
root -1.24089 18.4596 2.95756 -541.508 32.8033 -539.205
lowerback -2.05141 5.56058 2.06642
upperback 6.0566 7.91635 -3.06574
thorax 8.24386 4.28428 -3.59151
lowerneck 0.675926 1.65363 12.3662
upperneck 13.1395 3.148 -5.49339
head 4.08984 2.14925 -3.59497
rclavicle 1.25632e-013 -5.08889e-014
rhumerus 82.6677 16.4725 -71.3311
rradius 38.5154
rwrist 31.0081
rhand -27.3448 9.40836
rfingers 7.12502
rthumb -0.753095 -20.5701
lclavicle 1.25632e-013 -5.08889e-014
lhumerus 50.9258 -16.1201 83.9798
lradius 73.3778
lwrist 52.2422
lhand -46.9712 -4.09017
lfingers 7.12502
lthumb -19.6796 24.9337
rfemur 365.623 9.86984 -354.701
rtibia 40.3613
rfoot -6.85782 3.51518
rtoes -38.716
lfemur -20.9318 -0.67241 -18.0671
ltibia 49.9763
lfoot -18.2271 5.66242
ltoes -20.8239
329
root -1.23329 18.5327 2.95593 -541.259 32.8912 -539.039
lowerback -2.17067 5.5764 2.08345
upperback 5.93879 7.91433 -3.03137
thorax 8.18156 4.2736 -3.5597
lowerneck 0.829589 1.61933 12.3083
upperneck 13.259 3.15244 -5.56008
head 4.09982 2.15812 -3.6082
rclavicle -2.18663e-014 -4.13472e-014
rhumerus 82.6065 16.6454 -71.4172
rradius 38.4175
rwrist 30.8138
rhand -27.2007 9.56163
rfingers 7.12502
rthumb -0.613904 -20.4172
lclavicle -2.18663e-014 -4.13472e-014
lhumerus 50.8732 -16.0165 84.0154
lradius 73.3529
lwrist 52.2846
lhand -47.0184 -4.02861
lfingers 7.12502
lthumb -19.725 24.9906
rfemur 365.505 9.44425 -354.558
rtibia 39.9736
rfoot -6.16634 3.06214
rtoes -38.35
lfemur -20.6158 -0.591425 -17.8747
ltibia 49.0903
lfoot -17.7465 5.58
ltoes -20.4874
330
root -1.22577 18.6003 2.95486 -541.122 32.9561 -538.955
lowerback -2.2132 5.59574 2.05518
upperback 5.84751 7.92964 -3.03036
thorax 8.10394 4.27347 -3.54261
lowerneck 0.904118 1.57913 12.2854
upperneck 13.4034 3.13724 -5.6331
head 4.12947 2.15753 -3.62913
rclavicle -9.56154e-014 5.1684e-014
rhumerus 82.621 16.7415 -71.5173
rradius 38.2335
rwrist 30.6654
rhand -27.0185 9.70799
rfingers 7.12502
rthumb -0.437926 -20.2713
lclavicle -9.56154e-014 5.1684e-014
lhumerus 50.8369 -15.9867 84.0366
lradius 73.3421
lwrist 52.275
lhand -47.11 -3.90082
lfingers 7.12502
lthumb -19.813 25.1093
rfemur 365.463 9.0712 -354.466
rtibia 39.6169
rfoot -5.54528 2.61005
rtoes -37.8958
lfemur -20.248 -0.580898 -17.7647
ltibia 48.2621
lfoot -17.3044 5.527
ltoes -20.2994
331
root -1.21809 18.6635 2.95488 -541.052 33.0276 -538.953
lowerback -2.23575 5.60904 1.94275
upperback 5.77478 7.94463 -3.02753
thorax 8.0223 4.26936 -3.47889
lowerneck 0.921081 1.54605 12.2227
upperneck 13.5823 3.12678 -5.71318
head 4.17886 2.1567 -3.64513
rclavicle 1.27222e-014 4.13472e-014
rhumerus 82.6958 16.8342 -71.5793
rradius 38.0396
rwrist 30.4811
rhand -26.7125 9.83588
rfingers 7.12502
rthumb -0.142431 -20.1438
lclavicle 1.27222e-014 4.13472e-014
lhumerus 50.7794 -15.9289 84.0625
lradius 73.3907
lwrist 52.2924
lhand -47.1376 -3.76389
lfingers 7.12502
lthumb -19.8396 25.2435
rfemur 365.436 8.73482 -354.446
rtibia 39.3037
rfoot -4.98451 2.18204
rtoes -37.3602
lfemur -19.8758 -0.644868 -17.7304
ltibia 47.4852
lfoot -16.9126 5.55452
ltoes -20.1297
332
root -1.21034 18.7193 2.95602 -540.954 33.116 -538.928
lowerback -2.28582 5.61528 1.82835
upperback 5.70133 7.94685 -3.00289
thorax 7.951 4.25727 -3.38998
lowerneck 1.00007 1.52119 12.1156
upperneck 13.6684 3.12725 -5.77608
head 4.18981 2.15649 -3.64851
rclavicle -1.39149e-014 -4.69132e-014
rhumerus 82.7924 16.9683 -71.6129
rradius 37.8337
rwrist 30.2944
rhand -26.4269 9.92185
rfingers 7.12502
rthumb 0.133455 -20.0578
lclavicle -1.39149e-014 -4.69132e-014
lhumerus 50.7155 -15.8301 84.0951
lradius 73.4146
lwrist 52.2203
lhand -47.1419 -3.54606
lfingers 7.12502
lthumb -19.8437 25.4609
rfemur 365.362 8.42411 -354.405
rtibia 39.0479
rfoot -4.51113 1.77196
rtoes -37.0448
lfemur -19.5477 -0.723425 -17.6821
ltibia 46.7558
lfoot -16.5534 5.63409
ltoes -19.9748
333
root -1.20414 18.7679 2.95861 -540.82 33.178 -538.882
lowerback -2.35891 5.63017 1.75164
upperback 5.63598 7.95981 -2.98182
thorax 7.90903 4.25338 -3.32117
lowerneck 1.10459 1.49886 11.9736
upperneck 13.6129 3.11168 -5.7674
head 4.15122 2.14283 -3.62415
rclavicle -5.26779e-014 3.26007e-014
rhumerus 82.8975 17.043 -71.6467
rradius 37.6566
rwrist 30.186
rhand -26.1309 9.99378
rfingers 7.12502
rthumb 0.419318 -19.9855
lclavicle -5.26779e-014 3.26007e-014
lhumerus 50.7211 -15.7834 84.1108
lradius 73.3998
lwrist 52.124
lhand -47.1374 -3.38789
lfingers 7.12502
lthumb -19.8394 25.6195
rfemur 365.246 8.09512 -354.346
rtibia 38.8571
rfoot -4.09082 1.39953
rtoes -36.8578
lfemur -19.2715 -0.857171 -17.6018
ltibia 46.066
lfoot -16.2147 5.67201
ltoes -19.6986
